# xmcd CD database file
#
# Track frame offsets:
#	150
#	12189
#	23949
#	38018
#	51006
#	65729
#	78246
#	100381
#	117625
#	130630
#	144404
#	161592
#	179788
#
# Disc length: 2636 seconds
#
# Revision: 0
# Processed by: cddbd v1.5.2PL0 Copyright (c) Steve Scherf et al.
# Submitted via: CDex 1.51
#
DISCID=b00a4a0d
DTITLE=Slam and Howie and the Reserve Men - Guilty
DYEAR=2008
DGENRE=Country
TTITLE0=Bastard Speed Country Boys
TTITLE1=Discotheque
TTITLE2=You Ain't Free (If You Are A Hobo)
TTITLE3=Blitzkrieg Bop
TTITLE4=Doc Holliday
TTITLE5=Irish Grass
TTITLE6=Pedal To The Metal
TTITLE7=Uncle Sam And His Beloved Sputnik
TTITLE8=Mardi Gras
TTITLE9=The Greenhorn
TTITLE10=Walk Away
TTITLE11=Story Of My Life
TTITLE12=Ballad Of An East-German Girl
EXTD=YEAR: 2008
EXTT0=
EXTT1=
EXTT2=
EXTT3=
EXTT4=
EXTT5=
EXTT6=
EXTT7=
EXTT8=
EXTT9=
EXTT10=
EXTT11=
EXTT12=
PLAYORDER=
